<svg xmlns="http://www.w3.org/2000/svg" xmlns:xlink="http://www.w3.org/1999/xlink" viewBox="0 0 400 400"><defs/><defs><linearGradient id="b" x1="307.8" x2="190.6" y1="33.6" y2="243.8" gradientUnits="userSpaceOnUse" xlink:href="#a"/><linearGradient id="a"><stop offset="0" stop-color="#a8afff"/><stop offset="1" stop-color="#a8afff" stop-opacity="0"/></linearGradient></defs><ellipse cx="200" cy="200" fill="#99c361" rx="150" ry="200"/><path fill="#ff9" d="M154 10a150 200 0 00-72 66 50 50 0 0043 24 50 50 0 0050-50 50 50 0 00-21-40zM246 10a50 50 0 00-21 40 50 50 0 0050 50 50 50 0 0043-24 150 200 0 00-72-66zM125 300a50 50 0 00-43 24 150 200 0 0072 66 50 50 0 0021-40 50 50 0 00-50-50zM275 300a50 50 0 00-50 50 50 50 0 0021 40 150 200 0 0072-66 50 50 0 00-43-24zM55 150a150 200 0 00-5 50 150 200 0 005 50 50 50 0 0045-50 50 50 0 00-45-50z"/><circle cx="200" cy="200" r="50" fill="#ff9"/><path fill="#ff9" d="M345 150a50 50 0 00-45 50 50 50 0 0045 50 150 200 0 005-50 150 200 0 00-5-50z"/><ellipse cx="200" cy="200" fill="url(#b)" rx="150" ry="200"/></svg>